<?xml version="1.0" encoding="UTF-8"?>
<svg id="Layer_1" data-name="Layer 1" xmlns="http://www.w3.org/2000/svg" version="1.1" viewBox="0 0 200 106.4">
  <g fill="#faed2e">
    <path
      d="M11.6,6.1s-.2,0-.6.1c-.5,0-1,.2-1.7.4-1.4.4-3.5,1.1-5.2,2.8-.9.8-1.5,2-1.7,3.3-.2,1.3.3,2.8,1.3,4,.5.6,1.1,1.1,1.8,1.5.3.2.8.4,1.1.6.4.1.8.3,1.3.4,1.6.4,3.5.6,4.9-.1.7-.3,1.2-.9,1.4-1.6.1-.3,0-.7,0-1,0-.2,0-.3-.2-.5,0,0-.1-.1-.2-.2-.9-.7-2.8-.4-4.1,0-1.4.5-2.5,1.5-2.8,2.6,0,.3-.1.6-.1.9,0,.4,0,.7,0,.9.1.6.4,1.1.7,1.7,1.3,2.1,3.3,3.1,4.7,3.6.7.3,1.3.4,1.7.5.4,0,.6.1.6.1v1c0,0-.3,0-.8,0-.4,0-1.1-.1-1.9-.3-1.6-.4-4-1.3-5.9-3.8-.4-.6-.8-1.4-1-2.2,0-.5-.2-.9-.2-1.3,0-.5,0-.9.1-1.4.5-2,2.1-3.4,3.9-4.1.9-.3,1.9-.5,2.9-.5,1,0,2.1.3,3,1.2,1.8,2.1.4,4.9-1.5,5.6-1.9.9-3.9.6-5.7.1-.5-.1-.9-.3-1.3-.4-.5-.2-.9-.4-1.3-.6-.8-.4-1.6-1-2.2-1.7-1.3-1.3-2.1-3.2-2-5,0-1.8.9-3.4,1.9-4.6,1-1.2,2.1-2,3.1-2.6,1-.6,2-1.1,2.8-1.4.8-.3,1.5-.6,1.9-.7.4-.1.6-.2.6-.2l.8,3Z" />
    <path d="M3.9,34.2c1.5-1.8,4.4-3,4.4-3,0,0,4.7.2,5.2,2.1l-1.9,3.7s-2.1-4.7-7.7-2.8Z" />
    <path d="M18.3,13.7s.7,4.6.7,5.9c0,0,6.6-2.4,7.6-1.7l-1.5-4.8s-5.3-.1-6.8.5Z" />
    <path
      d="M18.7,24.4l15.2-1.2c9.6-.7,16.5,5.3,14.8,17.3l-.3,2c-1.6,12.2-7.3,18.7-17.4,19.5l-5.2.4-1.4,10.6-12.4,1,6.7-49.7ZM29.7,50.5c2.4-.2,5.8-1.1,6.6-7.1l.3-1.8c.8-6-2.2-6.5-4.9-6.3l-2.2.2-2.1,15.3,2.3-.2Z" />
    <path d="M54.4,21.7l12.3-.9-6.7,49.7-12.3.9,6.7-49.7Z" />
    <polygon
      points="71.9 20.3 83.6 19.4 89.5 40.7 92.4 18.7 104.8 17.8 98.1 67.4 86.5 68.3 80.5 47.2 77.6 69 65.2 70 71.9 20.3" />
    <path
      d="M118.6,16.7l13.2-1,5.8,48.7-12.1.9-.7-8.2-10,.8-3,8.5-12.5,1,19.5-50.7ZM123.8,46.5l-.6-13.8-4.7,14.2,5.3-.4Z" />
    <path d="M146.4,26.5l-8.4.6,1.6-12,29.1-2.2-1.6,12-8.4.6-5.1,37.6-12.3.9,5-37.6Z" />
    <path
      d="M177,12.2l13.2-1,5.8,48.7-12.1.9-.7-8.2-10,.8-3,8.5-12.5,1,19.5-50.7ZM182.1,42l-.6-13.8-4.7,14.2,5.3-.4Z" />
    <g>
      <path
        d="M83.9,93.7l1.5-10.3c.9-6.3,4.1-10.4,10.5-10.9,5.8-.4,10,3.5,9.1,9.5l-.2,1.3-7.3.5.2-1.6c.4-2.5-1-2.7-2.1-2.6-1,0-2.4.5-2.8,3l-1.5,10.8c-.4,2.6.9,2.8,2,2.7,1.2,0,2.5-.5,2.9-3l.3-2,7.4-.5-.3,1.7c-.9,6.3-4.4,10.5-10.4,10.9-5.8.4-10.1-3.2-9.2-9.5Z" />
      <path
        d="M112.9,71.9l7.9-.6,3.3,29.2-7.3.5-.4-4.9-6,.4-1.8,5.1-7.5.5,11.8-30.3ZM115.9,89.8l-.3-8.3-2.9,8.5,3.2-.2Z" />
      <path
        d="M124.1,90.9l7.3-.5c-.5,2.2.9,3,2.3,2.9,1.7,0,2.7-.9,2.9-2.5.5-4.1-11.7-2.7-10.6-12.5.6-5.5,4.9-8.5,10.5-8.7,5.6-.2,9.5,3.2,8.6,9.1l-7.2.5c.6-2-.9-2.7-2-2.6-1.3,0-2.4.7-2.6,2.2-.6,4.5,12,2.3,10.7,12.7-.7,5.8-5.1,8.7-11,8.8-5.8.1-9.8-3.3-9-9.4Z" />
      <path d="M148.6,69.3l7.4-.5-4.2,29.7-7.4.5,4.2-29.7Z" />
      <path d="M159.1,68.6l7-.5,3.5,12.8,1.9-13.2,7.4-.5-4.2,29.7-7,.5-3.5-12.7-1.8,13.1-7.4.5,4.2-29.7Z" />
      <path
        d="M178.3,87l1.4-10.2c.9-6.3,4.4-10.5,10.4-10.9,5.8-.4,10.1,3.1,9.2,9.5l-1.4,10.2c-.8,6.3-4.5,10.4-10.4,10.9-5.8.4-10.1-3.1-9.2-9.5ZM187.7,89.4c1.1,0,2.5-.5,2.9-3l1.5-10.7c.4-2.6-.9-2.8-2.1-2.7-1.1,0-2.4.5-2.8,3l-1.5,10.7c-.4,2.5.9,2.7,2,2.7Z" />
    </g>
    <path
      d="M77.2,7.5c2.5-1.4,4.6-2,6.5-2.1,3.8-.3,6.7,1.2,10.5,1,1.9-.1,4-.7,6.5-2.2l-1.2,9.2c-2.5,1.6-4.6,2.3-6.3,2.4-3.8.3-6.4-1.7-10.4-1.4-1.9.1-4.1.8-6.8,2.4l1.3-9.2Z" />
  </g>
</svg>